:SAMPLES-PER-SECOND 24
:FULLY-SPECIFIED
:DEGREES
231
root  -12.3541 38.8451 21.1873 -169.129 81.018 -168.761
RightUpLeg  -6.07023 -20.0587 -22.9342
RightLeg  48.7801 1.25735 1.19839
RightFoot  11.5703 -2.12528 10.8886
RightToes  -1.74623e-010 0 -2.59999e-017
Spine  7.13478 5.80484 1.39448
Spine1  16.0727 6.83194 -5.17869
HEad  -23.9818 55.6659 -30.6549
LeftShoulder1  1.89708 -3.04104 -22.6912
LeftArm  8.0181 1.86224 -39.1607
LeftForeArm  25.5419 -58.3897 -16.1174
LeftHand  0.195341 7.13709 14.2103
RightShoulder  2.8571 5.19177 26.8629
RightArm  11.2312 7.89567 48.9096
RightForeArm  160.28 61.7133 160.691
RightHand  -0.147377 -3.6291 -8.76785
LeftUpLeg  -17.4325 14.4142 7.82476
LeftLeg  26.0498 2.77746 1.86389
LeftFoot  -3.92133 0.49534 -7.22648
LeftToes  -6.27559e-011 -2.10356e-011 8.24929e-012
232
root  -11.6802 39.1378 20.9618 -170.626 79.356 -170.036
RightUpLeg  -8.2741 -24.1822 -21.5715
RightLeg  46.4658 1.24233 1.08991
RightFoot  9.08415 -2.03124 11.5881
RightToes  -1.74623e-010 0 -2.59999e-017
Spine  6.73233 5.56614 1.35338
Spine1  15.6083 6.46848 -4.35919
HEad  -22.2967 55.3204 -28.9507
LeftShoulder1  1.82662 -3.00736 -21.7017
LeftArm  6.15411 0.611978 -39.3911
LeftForeArm  23.8635 -57.1941 -15.4638
LeftHand  0.263926 7.4015 16.1483
RightShoulder  2.78423 5.10496 26.3276
RightArm  12.6194 9.38924 49.4907
RightForeArm  160.085 60.4098 161.625
RightHand  -0.133678 -3.5861 -7.68055
LeftUpLeg  -15.0188 13.8728 7.97262
LeftLeg  23.5112 1.93985 1.03848
LeftFoot  -3.79516 0.490229 -7.06739
LeftToes  -6.27559e-011 -2.10356e-011 8.24929e-012
233
root  -10.988 39.3908 20.7781 -171.263 78.0741 -170.5
RightUpLeg  -9.53816 -27.4594 -19.5509
RightLeg  40.1288 0.093861 -0.172685
RightFoot  7.1175 -1.45616 9.2437
RightToes  -1.74623e-010 0 -2.59999e-017
Spine  6.22386 5.39676 2.23391
Spine1  15.1531 6.49883 -4.22522
HEad  -21.1182 54.807 -27.7565
LeftShoulder1  1.74323 -2.85892 -21.0027
LeftArm  4.49157 0.00385868 -39.8902
LeftForeArm  22.2205 -56.0342 -14.8746
LeftHand  0.284639 7.35134 17.6262
RightShoulder  2.75357 5.08218 26.0448
RightArm  13.0832 9.68918 49.9637
RightForeArm  159.23 59.4122 162.23
RightHand  -0.14832 -3.44691 -8.05344
LeftUpLeg  -12.6128 11.8064 8.36685
LeftLeg  21.1323 2.91865 0.889576
LeftFoot  -3.75963 0.497342 -7.16134
LeftToes  -6.27559e-011 -2.10356e-011 8.24929e-012
234
root  -10.2797 39.5455 20.7152 -172.511 77.2806 -171.49
RightUpLeg  -9.83936 -28.9257 -17.2861
RightLeg  30.6817 -1.66804 -1.23506
RightFoot  5.03261 -1.25899 8.97644
RightToes  -1.74623e-010 0 -2.59999e-017
Spine  5.729 5.30037 2.97541
Spine1  15.0481 6.61832 -4.24404
HEad  -20.829 54.0752 -27.4075
LeftShoulder1  1.71688 -2.76031 -21.0134
LeftArm  3.00612 0.460598 -39.7796
LeftForeArm  19.9681 -55.5436 -14.7826
LeftHand  0.246962 6.94 19.2514
RightShoulder  2.76179 5.10591 26.052
RightArm  13.1111 9.73074 50.3238
RightForeArm  158.179 59.0252 162.391
RightHand  -0.164886 -3.33168 -8.58563
LeftUpLeg  -10.327 10.2397 8.70865
LeftLeg  19.2691 3.65116 0.779951
LeftFoot  -3.86173 0.521976 -7.62428
LeftToes  -6.27559e-011 -2.10356e-011 8.24929e-012
235
root  -9.52308 39.6118 20.7894 -175.146 76.3469 -173.716
RightUpLeg  -8.78745 -30.5169 -15.322
RightLeg  19.4423 0.304491 -0.350244
RightFoot  1.85587 -1.38795 12.1215
RightToes  -1.74623e-010 0 -2.59999e-017
Spine  5.1088 5.08176 3.26047
Spine1  15.4296 6.49089 -4.00214
HEad  -20.394 53.4051 -26.9295
LeftShoulder1  1.76542 -2.85138 -21.4084
LeftArm  2.16859 1.91073 -39.1202
LeftForeArm  16.4318 -55.22 -14.9085
LeftHand  0.140845 6.19145 21.4043
RightShoulder  2.80958 5.16492 26.3988
RightArm  13.0791 9.73833 50.462
RightForeArm  157.08 59.4122 162.036
RightHand  -0.176499 -3.30149 -9.12953
LeftUpLeg  -8.2774 9.83193 8.89587
LeftLeg  18.1232 3.02561 0.466552
LeftFoot  -4.11099 0.528527 -7.96428
LeftToes  -6.27559e-011 -2.10356e-011 8.24929e-012
236
root  -8.75842 39.537 20.9982 -178.436 74.822 -176.137
RightUpLeg  -6.3926 -22.2272 -15.1428
RightLeg  10.7572 0.707689 2.57467
RightFoot  0.208456 -1.48139 14.5891
RightToes  -1.74623e-010 0 -2.59999e-017
Spine  5.05196 4.74151 3.71258
Spine1  15.5842 6.23667 -3.91195
HEad  -18.9615 52.7839 -25.5202
LeftShoulder1  1.82904 -2.99342 -21.8052
LeftArm  2.61081 3.49695 -38.6656
LeftForeArm  12.2831 -53.6314 -14.3456
LeftHand  -0.00892958 5.36754 22.9319
RightShoulder  2.8716 5.21872 26.9302
RightArm  12.9476 9.1474 50.1403
RightForeArm  156.749 60.0294 161.585
RightHand  -0.176563 -3.3882 -9.52243
LeftUpLeg  -6.76229 9.92654 9.11446
LeftLeg  18.6682 1.22761 0.360098
LeftFoot  -4.99547 0.501778 -8.50164
LeftToes  -6.27559e-011 -2.10356e-011 8.24929e-012
237
root  -8.08 39.2583 21.3134 178.722 73.1972 -177.488
RightUpLeg  -6.56987 -14.395 -13.7026
RightLeg  11.8581 3.5976 2.22566
RightFoot  0.685668 -1.29426 12.2746
RightToes  -1.74623e-010 0 -2.59999e-017
Spine  6.3463 4.42452 5.08486
Spine1  15.0574 6.22237 -4.40084
HEad  -17.7052 51.8893 -24.2292
LeftShoulder1  1.86135 -3.02795 -22.173
LeftArm  3.74132 4.85701 -38.8587
LeftForeArm  9.30986 -50.8146 -13.0988
LeftHand  -0.0817018 4.99961 22.8893
RightShoulder  2.90572 5.24412 27.2358
RightArm  12.5672 8.10109 49.3657
RightForeArm  157.198 59.972 161.665
RightHand  -0.169856 -3.4671 -9.48775
LeftUpLeg  -6.0996 9.92303 9.81435
LeftLeg  21.7176 -0.638478 0.0909321
LeftFoot  -6.49867 0.430206 -9.23568
LeftToes  -6.27559e-011 -2.10356e-011 8.24929e-012
238
root  -7.50446 38.756 21.7107 175.858 71.0865 -178.96
RightUpLeg  -8.21764 -12.7155 -13.0929
RightLeg  20.1896 4.32329 1.38628
RightFoot  -0.920305 -0.850166 9.19881
RightToes  -1.74623e-010 0 -2.59999e-017
Spine  8.04758 3.77027 6.47162
Spine1  14.5895 5.98739 -5.41258
HEad  -17.9644 50.9388 -24.6077
LeftShoulder1  1.9238 -3.08807 -22.901
LeftArm  4.64821 6.55511 -39.1083
LeftForeArm  8.3057 -48.1966 -11.9476
LeftHand  -0.0286586 5.27114 21.6236
RightShoulder  2.90113 5.22631 27.2515
RightArm  12.1025 7.77419 48.3782
RightForeArm  156.418 59.4914 161.924
RightHand  -0.165721 -3.48703 -9.33396
LeftUpLeg  -8.03645 10.1788 10.6156
LeftLeg  28.8045 -2.17702 -0.949829
LeftFoot  -7.73762 0.336647 -9.19442
LeftToes  -6.27559e-011 -2.10356e-011 8.24929e-012
239
root  -6.98623 38.3866 22.0603 174.899 68.2644 -179.725
RightUpLeg  -8.83128 -15.6359 -13.8863
RightLeg  25.6361 3.63103 1.68471
RightFoot  -4.41044 -0.625862 9.88142
RightToes  -1.74623e-010 0 -2.59999e-017
Spine  8.20918 2.85047 7.48156
Spine1  14.6665 5.18751 -5.71544
HEad  -18.7967 50.3141 -25.9348
LeftShoulder1  2.07175 -3.32221 -24.1294
LeftArm  6.16295 9.19851 -39.1745
LeftForeArm  9.02207 -45.9997 -10.9706
LeftHand  0.0542379 5.74189 20.42
RightShoulder  2.87894 5.15594 27.2665
RightArm  11.5696 8.35214 46.9166
RightForeArm  154.177 59.4116 161.779
RightHand  -0.13414 -3.79395 -8.70283
LeftUpLeg  -13.1136 11.32 11.3406
LeftLeg  38.1196 -4.03831 -3.02459
LeftFoot  -5.37776 0.488107 -8.81441
LeftToes  -6.27559e-011 -2.10356e-011 8.24929e-012
240
root  -6.48058 38.4084 22.2401 176.125 66.8389 -179.412
RightUpLeg  -8.77051 -18.7161 -13.7064
RightLeg  26.0025 5.2451 2.55908
RightFoot  -6.02886 -0.521303 10.323
RightToes  -1.74623e-010 0 -2.59999e-017
Spine  6.97618 2.69501 8.44657
Spine1  14.4825 4.84308 -4.93038
HEad  -18.7277 50.0823 -26.2592
LeftShoulder1  2.22144 -3.56027 -25.2803
LeftArm  9.5842 12.7516 -39.8775
LeftForeArm  9.78877 -42.6609 -9.66994
LeftHand  0.0274125 5.6082 19.2574
RightShoulder  2.8461 5.07188 27.2079
RightArm  10.8957 8.56189 45.1157
RightForeArm  153.134 59.4735 161.644
RightHand  -0.0879952 -4.2986 -7.48793
LeftUpLeg  -18.6519 13.4804 12.2998
LeftLeg  45.3231 -5.81236 -5.8529
LeftFoot  1.84988 1.09762 -9.57467
LeftToes  -6.27559e-011 -2.10356e-011 8.24929e-012
241
root  -5.96056 38.6352 22.2394 176.217 67.596 179.773
RightUpLeg  -8.23451 -17.3293 -13.314
RightLeg  24.2722 4.99672 2.24605
RightFoot  -5.87007 -0.520086 10.0204
RightToes  -1.74623e-010 0 -2.59999e-017
Spine  6.10553 3.27207 8.86293
Spine1  13.6791 5.38912 -4.75934
HEad  -18.0612 50.2967 -25.3091
LeftShoulder1  2.25276 -3.62274 -25.4516
LeftArm  14.5545 16.5061 -41.6465
LeftForeArm  7.91302 -37.2138 -8.0416
LeftHand  -0.120149 4.60438 16.4265
RightShoulder  2.81074 5.01998 26.9875
RightArm  10.3195 8.00752 44.1924
RightForeArm  153.475 59.0902 161.933
RightHand  -0.0820903 -4.34919 -7.12695
LeftUpLeg  -21.0481 15.7218 12.8925
LeftLeg  46.9346 -6.10753 -6.5326
LeftFoot  7.87293 1.81175 -10.9923
LeftToes  -6.27559e-011 -2.10356e-011 8.24929e-012
242
root  -5.42442 38.9588 22.059 174.097 68.222 177.265
RightUpLeg  -6.23557 -14.6814 -14.0422
RightLeg  21.2126 2.98842 1.05608
RightFoot  -5.44243 -0.615096 11.1714
RightToes  -1.74623e-010 0 -2.59999e-017
Spine  5.86724 3.33786 8.74865
Spine1  12.8831 5.76848 -5.94167
HEad  -17.6867 50.7953 -24.0986
LeftShoulder1  2.1535 -3.55583 -24.2918
LeftArm  20.7331 19.487 -44.0749
LeftForeArm  3.32097 -30.4845 -6.47436
LeftHand  -0.209046 3.48763 12.1656
RightShoulder  2.82003 5.03325 27.0469
RightArm  9.74059 7.33663 44.1899
RightForeArm  152.612 58.0586 162.53
RightHand  -0.106687 -4.0535 -7.84014
LeftUpLeg  -19.7345 15.1691 12.7375
LeftLeg  41.8155 -3.69611 -3.20735
LeftFoot  7.94739 1.68408 -10.148
LeftToes  -6.27559e-011 -2.10356e-011 8.24929e-012
243
root  -4.89853 39.2493 21.7549 172.551 67.8314 175.24
RightUpLeg  -3.77391 -13.0611 -14.9933
RightLeg  17.5812 1.35168 0.442683
RightFoot  -4.77959 -0.73034 12.1271
RightToes  -1.74623e-010 0 -2.59999e-017
Spine  5.41382 3.04414 8.22104
Spine1  12.1313 5.58423 -6.76171
HEad  -17.8615 50.9115 -23.5813
LeftShoulder1  2.07063 -3.53331 -23.1582
LeftArm  28.9959 21.2289 -45.9773
LeftForeArm  -1.47096 -24.3614 -5.13526
LeftHand  -0.167592 3.25416 8.46517
RightShoulder  2.84511 5.04666 27.2982
RightArm  8.40855 6.58752 43.4273
RightForeArm  150.024 56.2264 163.425
RightHand  -0.106729 -4.11011 -8.20701
LeftUpLeg  -17.4324 11.1871 12.548
LeftLeg  32.3146 -0.560332 -0.0770435
LeftFoot  6.79782 1.01664 -6.6176
LeftToes  -6.27559e-011 -2.10356e-011 8.24929e-012
244
root  -4.49796 39.2368 21.3777 172.632 67.9069 174.692
RightUpLeg  -3.37257 -12.3802 -15.4281
RightLeg  17.1915 0.950669 0.266397
RightFoot  -5.2752 -0.677735 12.0684
RightToes  -1.74623e-010 0 -2.59999e-017
Spine  5.52963 3.31416 7.52824
Spine1  10.8029 5.56255 -6.24401
HEad  -18.9669 50.1492 -24.416
LeftShoulder1  2.13772 -3.65234 -23.6303
LeftArm  30.4763 21.5521 -45.8866
LeftForeArm  1.99449 -19.4923 -7.02969
LeftHand  -0.103666 3.6817 6.01984
RightShoulder  2.76207 4.89735 26.8866
RightArm  5.85629 5.6373 41.6135
RightForeArm  147.415 54.5153 164.182
RightHand  -0.0925961 -4.38909 -8.7673
LeftUpLeg  -16.1888 5.98916 13.1653
LeftLeg  24.1183 -1.37934 -0.34114
LeftFoot  8.03787 0.900609 -5.55967
LeftToes  -6.27559e-011 -2.10356e-011 8.24929e-012
245
root  -4.28051 38.7652 20.9252 172.332 68.5573 174.398
RightUpLeg  -5.38086 -12.9309 -16.3778
RightLeg  22.3033 2.24792 0.799209
RightFoot  -8.06405 -0.401866 12.0913
RightToes  -1.74623e-010 0 -2.59999e-017
Spine  7.08728 3.78316 7.16055
Spine1  9.54819 5.90615 -5.94233
HEad  -21.2753 48.7175 -26.1742
LeftShoulder1  2.26444 -3.81269 -24.764
LeftArm  27.1681 20.9169 -44.6683
LeftForeArm  6.1755 -16.7152 -9.06299
LeftHand  -0.0721429 4.22374 5.41866
RightShoulder  2.61397 4.66524 25.9739
RightArm  2.26454 5.18042 39.7172
RightForeArm  146.294 54.6402 164.029
RightHand  -0.12227 -4.22645 -10.6269
LeftUpLeg  -16.3582 3.36819 13.8049
LeftLeg  22.6876 -5.39646 -2.16607
LeftFoot  7.45755 1.52208 -9.51434
LeftToes  -6.27559e-011 -2.10356e-011 8.24929e-012
